<svg xmlns="http://www.w3.org/2000/svg" viewBox="100% 100% 100% 100%"><defs><style>.cls-1{fill:#231f20;}</style></defs><g id="Layer_2" data-name="Layer 2"><g id="Layer_1-2" data-name="Layer 1"><path class="cls-1" d="M8.2,42.19a8,8,0,0,1-3.55-.75,7.55,7.55,0,0,1-2.56-2,8.54,8.54,0,0,1-1.56-2.9A11.23,11.23,0,0,1,0,33.11a14.77,14.77,0,0,1,.26-2.66A16.39,16.39,0,0,1,1,27.74,15.11,15.11,0,0,1,2.32,25.2a10.08,10.08,0,0,1,1.76-2.12,8,8,0,0,1,2.23-1.45A6.64,6.64,0,0,1,9,21.09a6.73,6.73,0,0,1,2.32.39,5.36,5.36,0,0,1,1.82,1.06,5,5,0,0,1,1.19,1.62,4.83,4.83,0,0,1,.43,2,5.6,5.6,0,0,1-.2,1.47A4.71,4.71,0,0,1,14,29a3.08,3.08,0,0,1-.94.93,2.16,2.16,0,0,1-1.23.35,1.44,1.44,0,0,1-1.35-.54,3.1,3.1,0,0,1-.32-1.52q0-.39,0-.84a7.59,7.59,0,0,0,0-.79,3.15,3.15,0,0,0-.11-.88.48.48,0,0,0-.49-.35,2.7,2.7,0,0,0-1.53.43A3.88,3.88,0,0,0,7,26.86a6.21,6.21,0,0,0-.72,1.56,16,16,0,0,0-.41,1.73,12.27,12.27,0,0,0-.2,1.63c0,.52,0,1,0,1.31a9.55,9.55,0,0,0,.15,1.65,4.64,4.64,0,0,0,.54,1.57A3.49,3.49,0,0,0,7.38,37.5,3.07,3.07,0,0,0,9.14,38a5.25,5.25,0,0,0,2.33-.65A16.38,16.38,0,0,0,14,35.68a23.77,23.77,0,0,0,2.45-2.17,28.79,28.79,0,0,0,2-2.24L20,33.82A29.41,29.41,0,0,1,16.44,38c-.55.53-1.14,1-1.77,1.54a16.14,16.14,0,0,1-2,1.33,12.4,12.4,0,0,1-2.18.95A7.5,7.5,0,0,1,8.2,42.19Z"/><path class="cls-1" d="M40.56,36.8q-.51.71-1.35,1.65a16.35,16.35,0,0,1-1.9,1.8,11.27,11.27,0,0,1-2.26,1.45,5.41,5.41,0,0,1-2.42.6,3.33,3.33,0,0,1-2.42-.94,7.63,7.63,0,0,1-1.67-2.71,10.32,10.32,0,0,1-1.29,1.25,12.5,12.5,0,0,1-1.68,1.16,11.19,11.19,0,0,1-1.91.84,6.12,6.12,0,0,1-2,.33,5.11,5.11,0,0,1-2.06-.43,5.33,5.33,0,0,1-1.77-1.23,6,6,0,0,1-1.23-2A7.14,7.14,0,0,1,16.17,36a13.46,13.46,0,0,1,.46-3.38,18.94,18.94,0,0,1,1.28-3.4,19.31,19.31,0,0,1,1.92-3.13,15.69,15.69,0,0,1,2.43-2.57A11.72,11.72,0,0,1,25,21.79a7.12,7.12,0,0,1,3-.65,1.32,1.32,0,0,1,.79.2,2,2,0,0,1,.47.45l.36.49a1,1,0,0,0,.44.35,1.8,1.8,0,0,0,.54.14,3.43,3.43,0,0,0,.56,0h1a2.93,2.93,0,0,1,.61.06,1.09,1.09,0,0,1,.51.29,1.37,1.37,0,0,1,.34.61,3.92,3.92,0,0,1,.12,1.08,13.69,13.69,0,0,1-.22,2.34q-.22,1.29-.48,2.64c-.18.9-.34,1.8-.49,2.7a16.71,16.71,0,0,0-.22,2.56,5.56,5.56,0,0,0,.19,1.61.77.77,0,0,0,.8.59,2.4,2.4,0,0,0,1-.23,6.1,6.1,0,0,0,1-.61,9.86,9.86,0,0,0,1-.85c.35-.31.67-.64,1-1,.72-.79,1.44-1.69,2.18-2.68ZM21.8,35.07a7.35,7.35,0,0,0,.07,1.06,3.17,3.17,0,0,0,.28.93,1.82,1.82,0,0,0,.53.66,1.36,1.36,0,0,0,.83.25,2,2,0,0,0,1.47-.7,7.14,7.14,0,0,0,1.15-1.7,12.61,12.61,0,0,0,.78-2,13.62,13.62,0,0,0,.38-1.76l1.34-6.46a3.75,3.75,0,0,0-1.76.45A6.52,6.52,0,0,0,25.26,27a11.28,11.28,0,0,0-1.4,1.76,14.22,14.22,0,0,0-1.1,2.08A13.85,13.85,0,0,0,22.05,33,9.19,9.19,0,0,0,21.8,35.07Z"/><path class="cls-1" d="M38,37.6c0-.65,0-1.4.11-2.26s.17-1.76.3-2.71.27-1.92.43-2.91.35-1.93.54-2.83.38-1.71.57-2.46a15.74,15.74,0,0,1,.58-1.84,3.76,3.76,0,0,1,.35-.77,1.47,1.47,0,0,1,.4-.45,1.43,1.43,0,0,1,.58-.22,4.84,4.84,0,0,1,.84-.06,5.07,5.07,0,0,1,.89.06.71.71,0,0,1,.47.26,1.1,1.1,0,0,1,.19.61c0,.26,0,.62,0,1.07v2c0,.77,0,1.53,0,2.27h.24c.29-.58.62-1.24,1-2a12.47,12.47,0,0,1,1.27-2,7.75,7.75,0,0,1,1.65-1.59,3.63,3.63,0,0,1,2.13-.65,2.24,2.24,0,0,1,.81.15,2.1,2.1,0,0,1,.7.4,2.21,2.21,0,0,1,.47.65,2,2,0,0,1,.17.87,6,6,0,0,1-.11,1q-.1.68-.24,1.41c-.09.49-.17,1-.24,1.43A8,8,0,0,0,52,28.19a4.49,4.49,0,0,0,.16,1.32,2.49,2.49,0,0,0,.4.85,1.5,1.5,0,0,0,.57.45,2,2,0,0,0,.67.13,5.41,5.41,0,0,0,2.05-.44,12.94,12.94,0,0,0,1.93-1,19.3,19.3,0,0,0,2-1.45L59.5,33.2,58.21,34c-.49.3-1,.59-1.55.86a11.19,11.19,0,0,1-1.72.68,5.85,5.85,0,0,1-1.81.28,4.73,4.73,0,0,1-2.66-.67,4.84,4.84,0,0,1-1.6-1.76A8.71,8.71,0,0,1,48,31c-.19-.9-.35-1.81-.46-2.73h-.35l-3.94,11a14.6,14.6,0,0,1-.58,1.42,4.63,4.63,0,0,1-.56.91,1.64,1.64,0,0,1-.62.49,1.72,1.72,0,0,1-.72.15,2.33,2.33,0,0,1-2.3-1.42,5,5,0,0,1-.39-1.47A13.5,13.5,0,0,1,38,37.6Z"/><path class="cls-1" d="M70.44,25.73a11.5,11.5,0,0,1,1,2.69,12.58,12.58,0,0,1,.32,2.72,12.35,12.35,0,0,1-.29,2.61,13.31,13.31,0,0,1-.82,2.55,12.55,12.55,0,0,1-1.32,2.31,9.26,9.26,0,0,1-1.78,1.86,8.38,8.38,0,0,1-2.19,1.26,7,7,0,0,1-2.52.46,6.15,6.15,0,0,1-3.31-.85,7,7,0,0,1-2.25-2.21A9.6,9.6,0,0,1,56,36.06a15.08,15.08,0,0,1-.4-3.47,13.82,13.82,0,0,1,.72-4.52,11.1,11.1,0,0,1,2.08-3.65A9.67,9.67,0,0,1,61.66,22a10.5,10.5,0,0,1,4.39-.89,11.62,11.62,0,0,1,3.91.65,14.5,14.5,0,0,1,3.42,1.74,18.87,18.87,0,0,1,3,2.49,38.23,38.23,0,0,1,2.56,2.9L78.49,32a12.29,12.29,0,0,0-1.61-1.71c-.67-.62-1.39-1.22-2.14-1.81s-1.5-1.13-2.23-1.65-1.36-1-1.89-1.31ZM63.65,38a2,2,0,0,0,1.45-.76,7.25,7.25,0,0,0,1.24-1.91,13.15,13.15,0,0,0,.84-2.55,12.14,12.14,0,0,0,.32-2.67,11.11,11.11,0,0,0-.15-1.88,5.76,5.76,0,0,0-.47-1.5,2.61,2.61,0,0,0-.79-1,1.84,1.84,0,0,0-1.16-.38,2.48,2.48,0,0,0-1.71.77,7,7,0,0,0-1.43,2,11.7,11.7,0,0,0-1,2.65,12,12,0,0,0-.35,2.79,8.68,8.68,0,0,0,.17,1.73,4.52,4.52,0,0,0,.55,1.42,3,3,0,0,0,1,1A2.86,2.86,0,0,0,63.65,38Z"/><path class="cls-1" d="M83.25,24.5A21.4,21.4,0,0,1,85.51,22a3.07,3.07,0,0,1,2-.94,4.56,4.56,0,0,1,2.31.58,5.48,5.48,0,0,1,1.71,1.51,7.06,7.06,0,0,1,1.08,2.18A8.73,8.73,0,0,1,93,27.93c0,.74,0,1.45-.09,2.12A12.59,12.59,0,0,1,92.6,32,11.43,11.43,0,0,1,92,33.9a12.79,12.79,0,0,1-1.07,2c.53-.31,1.06-.61,1.6-.9s1.09-.62,1.64-1,1.1-.74,1.66-1.17a17.82,17.82,0,0,0,1.71-1.53l1.7,3.62a22.23,22.23,0,0,1-2.41,1.92,19,19,0,0,1-2.46,1.41,20.44,20.44,0,0,1-2.64,1c-.91.29-1.88.55-2.91.79a5,5,0,0,1-1,.75c-.43.24-.86.47-1.29.68s-1,.46-1.56.68h-.54a13.45,13.45,0,0,1-3.71-.52,28,28,0,0,1-3.33-1.15A27,27,0,0,1,74,38.85c0-1.19.13-2.53.26-4q.18-1.94.48-4.56c.21-1.75.49-3.71.84-5.86.23-1.43.53-3,.88-4.8s.76-3.55,1.24-5.36,1-3.57,1.6-5.27a30.43,30.43,0,0,1,2-4.56,12.5,12.5,0,0,1,2.37-3.21A4,4,0,0,1,86.46,0a5.41,5.41,0,0,1,2.68.57A3.94,3.94,0,0,1,90.7,2.12a6.35,6.35,0,0,1,.73,2.3,20.8,20.8,0,0,1,.17,2.81,13,13,0,0,1-.78,4.31,26.78,26.78,0,0,1-2,4.42A42.94,42.94,0,0,1,86,20.28c-1,1.41-2.06,2.73-3.09,4Zm2,1.6a4.09,4.09,0,0,0-1.54.32,4.26,4.26,0,0,0-1.42,1,6.59,6.59,0,0,0-1.17,1.71,9.5,9.5,0,0,0-.75,2.52q-.19,1.19-.33,2.19c-.08.66-.16,1.25-.22,1.77s-.11,1.13-.15,1.64c.48.15,1,.27,1.45.38s.87.17,1.34.24a9.18,9.18,0,0,0,1.34.11,2.3,2.3,0,0,0,1.36-.44,4.32,4.32,0,0,0,1.1-1.18,8.78,8.78,0,0,0,.84-1.68,15.31,15.31,0,0,0,.57-2,18.24,18.24,0,0,0,.33-2,17.52,17.52,0,0,0,.11-1.83,4.36,4.36,0,0,0-.12-1,2.11,2.11,0,0,0-.44-.87,2.34,2.34,0,0,0-.88-.61A3.83,3.83,0,0,0,85.23,26.1ZM87.39,6c0-.06,0-.19,0-.38A2.23,2.23,0,0,0,87.2,5a1.82,1.82,0,0,0-.34-.55.78.78,0,0,0-.6-.24c-.29,0-.59.21-.91.62a8.93,8.93,0,0,0-.93,1.7A24.17,24.17,0,0,0,83.52,9c-.29.93-.58,1.9-.86,2.92S82.12,14,81.88,15s-.46,2-.66,3-.37,1.81-.51,2.59l-.36,1.9c.4-.76.84-1.55,1.33-2.37s1-1.67,1.49-2.56,1-1.8,1.46-2.73S85.54,13,85.92,12a24.51,24.51,0,0,0,1-3A17.44,17.44,0,0,0,87.39,6Z"/><path class="cls-1" d="M97,37.6q0-1.45.18-3.36c.11-1.26.26-2.55.43-3.86s.38-2.58.6-3.79.43-2.26.63-3.12a3.56,3.56,0,0,1,.94-1.7,2.58,2.58,0,0,1,1.88-.68,1.82,1.82,0,0,1,1.65.73,3.62,3.62,0,0,1,.46,1.93c0,.22,0,.52-.07.89s-.1.79-.16,1.23-.14.91-.21,1.39-.15.91-.21,1.32-.12.75-.17,1.05a5.71,5.71,0,0,0-.06.6h.44c.09-.16.22-.42.41-.78s.42-.77.66-1.24.52-1,.81-1.48l.8-1.49c.25-.48.47-.9.68-1.27l.46-.81a4,4,0,0,1,1.6-1.63,4.58,4.58,0,0,1,2-.44,2,2,0,0,1,1.75.93,4.37,4.37,0,0,1,.65,2.55,5,5,0,0,1-.1.81c-.07.38-.15.83-.25,1.36s-.22,1.11-.34,1.74-.24,1.27-.34,1.93-.19,1.31-.26,2-.1,1.23-.1,1.78a6.23,6.23,0,0,0,.35,2.24,1.14,1.14,0,0,0,1.06.88,1.91,1.91,0,0,0,.76-.2,7.44,7.44,0,0,0,.92-.52,12.1,12.1,0,0,0,1-.73c.35-.28.69-.57,1-.86.78-.69,1.59-1.47,2.44-2.33l.38,4.92-1.1.84-1.84,1.36A17,17,0,0,1,114.83,41a12.2,12.2,0,0,1-2.11.88,8,8,0,0,1-2.31.34c-.8,0-1.48-.58-2-1.75a12.39,12.39,0,0,1-.82-5.11,24.08,24.08,0,0,1,.17-2.84c.12-1,.27-2.12.44-3.29h-.35l-5.76,11.43a2.78,2.78,0,0,1-1,1.23,2.4,2.4,0,0,1-1.27.33,2.33,2.33,0,0,1-2.3-1.42,5,5,0,0,1-.39-1.47A13.5,13.5,0,0,1,97,37.6Z"/><path class="cls-1" d="M140.36,36.8q-.51.71-1.35,1.65a16.35,16.35,0,0,1-1.9,1.8,11.27,11.27,0,0,1-2.26,1.45,5.44,5.44,0,0,1-2.42.6,3.33,3.33,0,0,1-2.42-.94,7.63,7.63,0,0,1-1.67-2.71,10.32,10.32,0,0,1-1.29,1.25,12.5,12.5,0,0,1-1.68,1.16,11.19,11.19,0,0,1-1.91.84,6.12,6.12,0,0,1-2,.33,5.11,5.11,0,0,1-2.06-.43,5.33,5.33,0,0,1-1.77-1.23,6,6,0,0,1-1.23-2A7.14,7.14,0,0,1,116,36a13.46,13.46,0,0,1,.46-3.38,18.94,18.94,0,0,1,1.28-3.4,19.31,19.31,0,0,1,1.92-3.13,15.69,15.69,0,0,1,2.43-2.57,11.72,11.72,0,0,1,2.78-1.74,7.11,7.11,0,0,1,3-.65,1.34,1.34,0,0,1,.8.2,2,2,0,0,1,.47.45l.36.49a1,1,0,0,0,.44.35,1.8,1.8,0,0,0,.54.14,3.43,3.43,0,0,0,.56,0h1a2.93,2.93,0,0,1,.61.06,1.09,1.09,0,0,1,.51.29,1.48,1.48,0,0,1,.34.61,3.92,3.92,0,0,1,.12,1.08,13.69,13.69,0,0,1-.22,2.34q-.22,1.29-.48,2.64c-.18.9-.34,1.8-.49,2.7a16.71,16.71,0,0,0-.22,2.56,5.56,5.56,0,0,0,.19,1.61.77.77,0,0,0,.8.59,2.4,2.4,0,0,0,1-.23,6.1,6.1,0,0,0,1-.61,11,11,0,0,0,1-.85c.35-.31.67-.64,1-1,.72-.79,1.44-1.69,2.18-2.68ZM121.6,35.07a7.35,7.35,0,0,0,.07,1.06,3.17,3.17,0,0,0,.28.93,1.82,1.82,0,0,0,.53.66,1.36,1.36,0,0,0,.83.25,2,2,0,0,0,1.47-.7,7.14,7.14,0,0,0,1.15-1.7,12.61,12.61,0,0,0,.78-2,13.62,13.62,0,0,0,.38-1.76l1.34-6.46a3.75,3.75,0,0,0-1.76.45A6.52,6.52,0,0,0,125.06,27a11.28,11.28,0,0,0-1.4,1.76,14.22,14.22,0,0,0-1.1,2.08,13.85,13.85,0,0,0-.71,2.18A9.19,9.19,0,0,0,121.6,35.07Z"/><path class="cls-1" d="M156.8,29.9l1.73-2.21q.94-1.22,1.86-2.31c.61-.73,1.16-1.39,1.67-2a7.1,7.1,0,0,1,1.2-1.16,6.67,6.67,0,0,1,1.67-.83,6.89,6.89,0,0,1,2.19-.34,2.57,2.57,0,0,1,1.18.29,3,3,0,0,1,1,.81,4,4,0,0,1,.66,1.28,5.39,5.39,0,0,1,.24,1.67,4.19,4.19,0,0,1-.44,1.81,11.84,11.84,0,0,1-1.1,1.83c-.44.62-.92,1.23-1.43,1.85s-1,1.23-1.43,1.86a12.39,12.39,0,0,0-1.09,1.85,4.18,4.18,0,0,0-.44,1.85,1.43,1.43,0,0,0,.38,1.13,1.77,1.77,0,0,0,1.2.34,1.9,1.9,0,0,0,.95-.3,5.77,5.77,0,0,0,1.07-.78c.37-.32.74-.68,1.11-1.07s.73-.8,1.08-1.21.67-.8,1-1.18.59-.69.84-.95l1.32,5.38a9,9,0,0,1-1.73,1.84,13.29,13.29,0,0,1-2.26,1.47,13,13,0,0,1-2.53,1,9.85,9.85,0,0,1-2.51.35,7.24,7.24,0,0,1-2.59-.39,3.9,3.9,0,0,1-1.57-1,3.38,3.38,0,0,1-.78-1.44,6.51,6.51,0,0,1-.21-1.66,8,8,0,0,1,.12-1.24,10,10,0,0,1,.47-1.66,14.27,14.27,0,0,1,.95-2,18.88,18.88,0,0,1,1.61-2.38q.39-.4.72-.72t.57-.57a3.41,3.41,0,0,0,.38-.47,1,1,0,0,0,.13-.46,1.49,1.49,0,0,0-.17-.75.51.51,0,0,0-.47-.29,1.78,1.78,0,0,0-1,.49A6.34,6.34,0,0,0,161,29.29l-6.46,11.34a3.55,3.55,0,0,1-1.05,1.22,2.33,2.33,0,0,1-1.24.34,2.44,2.44,0,0,1-1.49-.41,2.52,2.52,0,0,1-.84-1.1,5.31,5.31,0,0,1-.36-1.6c0-.61-.08-1.26-.08-1.95s0-1.94.09-3.31.15-2.89.27-4.54.27-3.37.47-5.18.43-3.55.71-5.25c.1-.6.24-1.33.4-2.18s.36-1.78.6-2.76.53-2,.86-3.07a31.58,31.58,0,0,1,1.14-3.09,24.13,24.13,0,0,1,1.46-2.87,12.07,12.07,0,0,1,1.83-2.39A8,8,0,0,1,159.57.88,5.8,5.8,0,0,1,162.2.29a4.18,4.18,0,0,1,1.85.36,2.89,2.89,0,0,1,1.15,1,4.23,4.23,0,0,1,.61,1.55,10.81,10.81,0,0,1,.17,2,19,19,0,0,1-.47,4,43.49,43.49,0,0,1-1.2,4.32c-.48,1.45-1,2.85-1.58,4.21s-1.12,2.59-1.65,3.69-1,2-1.39,2.78-.67,1.25-.81,1.48l-2.61,3.92Zm4.3-24.67a1.76,1.76,0,0,0-1.2.44,4.5,4.5,0,0,0-1,1.25,15.81,15.81,0,0,0-.9,2c-.3.78-.64,1.64-1,2.59s-.45,1.7-.65,2.59-.38,1.79-.54,2.67-.3,1.77-.43,2.63-.23,1.68-.32,2.44c-.22,1.8-.39,3.57-.52,5.32L155.61,24l1.13-3.36c.38-1.1.73-2.15,1.06-3.14s.6-1.83.82-2.52c.1-.32.25-.72.44-1.21l.62-1.56c.22-.55.43-1.13.65-1.73s.43-1.18.61-1.74.33-1.07.45-1.56a5.13,5.13,0,0,0,.17-1.23C161.56,5.46,161.41,5.23,161.1,5.23Z"/><path class="cls-1" d="M171.52,37.6c0-.65,0-1.4.11-2.26s.17-1.76.29-2.71.28-1.92.44-2.91.35-1.93.54-2.83.38-1.71.57-2.46a14,14,0,0,1,.58-1.84,3.76,3.76,0,0,1,.35-.77,1.47,1.47,0,0,1,.4-.45,1.43,1.43,0,0,1,.58-.22,4.84,4.84,0,0,1,.84-.06,5.07,5.07,0,0,1,.89.06.71.71,0,0,1,.47.26,1.1,1.1,0,0,1,.19.61c0,.26,0,.62,0,1.07v2c0,.77,0,1.53,0,2.27h.24c.29-.58.62-1.24,1-2a12.47,12.47,0,0,1,1.27-2A7.52,7.52,0,0,1,182,21.74a3.63,3.63,0,0,1,2.13-.65,2.24,2.24,0,0,1,.81.15,2.1,2.1,0,0,1,.7.4,2.21,2.21,0,0,1,.47.65,2,2,0,0,1,.17.87,6,6,0,0,1-.11,1q-.1.68-.24,1.41c-.09.49-.17,1-.24,1.43a8,8,0,0,0-.11,1.15,4.89,4.89,0,0,0,.15,1.32,2.69,2.69,0,0,0,.41.85,1.5,1.5,0,0,0,.57.45,1.9,1.9,0,0,0,.67.13,5.41,5.41,0,0,0,2.05-.44,12.94,12.94,0,0,0,1.93-1,19.3,19.3,0,0,0,2-1.45l-.33,5.14-1.29.84c-.49.3-1,.59-1.55.86a11.19,11.19,0,0,1-1.72.68,5.9,5.9,0,0,1-1.81.28,4.7,4.7,0,0,1-2.66-.67,4.84,4.84,0,0,1-1.6-1.76,8.71,8.71,0,0,1-.88-2.44c-.19-.9-.35-1.81-.46-2.73h-.35l-3.94,11a14.6,14.6,0,0,1-.58,1.42,4.63,4.63,0,0,1-.56.91A1.64,1.64,0,0,1,175,42a1.72,1.72,0,0,1-.72.15,2.33,2.33,0,0,1-2.3-1.42,5,5,0,0,1-.39-1.47A13.5,13.5,0,0,1,171.52,37.6Z"/><path class="cls-1" d="M199.47,38.28a17.43,17.43,0,0,0,4-.44,15.54,15.54,0,0,0,3.31-1.19,13.91,13.91,0,0,0,2.68-1.75,16.81,16.81,0,0,0,2.16-2.14l.24,5a10.75,10.75,0,0,1-1.7,1.66A12.33,12.33,0,0,1,208,40.86a14.54,14.54,0,0,1-2.5,1,9.67,9.67,0,0,1-2.58.36,2.3,2.3,0,0,1-.39,0l-.8-.15-1.63-.3-2.89-.45v.4a36.76,36.76,0,0,1-.67,7.26,24.16,24.16,0,0,1-1.79,5.57A11,11,0,0,1,192.19,58a4.58,4.58,0,0,1-3,1.25,3.4,3.4,0,0,1-2.08-.61A4.32,4.32,0,0,1,185.77,57a8.75,8.75,0,0,1-.71-2.44,21.41,21.41,0,0,1-.2-3,8.41,8.41,0,0,1,.28-2,20.92,20.92,0,0,1,.77-2.37c.32-.83.69-1.67,1.09-2.53s.81-1.69,1.24-2.49c1-1.88,2.13-3.81,3.41-5.8.16-1.15.32-2.32.49-3.52s.38-2.36.64-3.49a23.57,23.57,0,0,1,1-3.21,9.66,9.66,0,0,1,1.5-2.64,6.94,6.94,0,0,1,2.18-1.78,6.64,6.64,0,0,1,3.08-.66,8.19,8.19,0,0,1,2.51.37,5.34,5.34,0,0,1,2,1.17,5.54,5.54,0,0,1,1.38,2.1,8.59,8.59,0,0,1,.51,3.15,9.64,9.64,0,0,1-.44,2.89,9.15,9.15,0,0,1-1.37,2.67,12.22,12.22,0,0,1-2.38,2.39,16.53,16.53,0,0,1-3.41,2Zm-10.42,13.6a3.7,3.7,0,0,0,.08.57,4,4,0,0,0,.25.79,2.57,2.57,0,0,0,.46.7.92.92,0,0,0,.71.31.7.7,0,0,0,.61-.41,3.71,3.71,0,0,0,.4-1.08,12.38,12.38,0,0,0,.22-1.54c0-.57.08-1.16.11-1.76s0-1.19.05-1.76,0-1.08.06-1.54c0-.79.07-1.46.1-2s0-1,.05-1.37,0-.75,0-1a16.64,16.64,0,0,0-.81,1.68c-.26.64-.51,1.3-.75,2s-.44,1.37-.63,2.06-.36,1.33-.5,1.93-.25,1.1-.33,1.53A6,6,0,0,0,189.05,51.88Zm7.65-15.82a11.05,11.05,0,0,0,3.92-3.21,9.88,9.88,0,0,0,1.13-1.91,12.77,12.77,0,0,0,.71-2,7,7,0,0,0,.14-1.14,3.78,3.78,0,0,0-.13-1.22,2.21,2.21,0,0,0-.57-1,1.56,1.56,0,0,0-1.14-.41,2.33,2.33,0,0,0-1.42.45,4,4,0,0,0-1.07,1.22,7.84,7.84,0,0,0-.75,1.82,20.13,20.13,0,0,0-.48,2.27c-.12.8-.21,1.64-.26,2.51S196.7,35.19,196.7,36.06Z"/><path class="cls-1" d="M232.25,36.8q-.51.71-1.35,1.65a16.35,16.35,0,0,1-1.9,1.8,11.27,11.27,0,0,1-2.26,1.45,5.44,5.44,0,0,1-2.42.6,3.33,3.33,0,0,1-2.42-.94,7.63,7.63,0,0,1-1.67-2.71,10.32,10.32,0,0,1-1.29,1.25,12,12,0,0,1-1.69,1.16,10.76,10.76,0,0,1-1.9.84,6.17,6.17,0,0,1-2,.33,5.11,5.11,0,0,1-2.06-.43,5.33,5.33,0,0,1-1.77-1.23,6,6,0,0,1-1.23-2,7.14,7.14,0,0,1-.46-2.61,13.46,13.46,0,0,1,.46-3.38,18.94,18.94,0,0,1,1.28-3.4,19.31,19.31,0,0,1,1.92-3.13A15.69,15.69,0,0,1,214,23.53a11.72,11.72,0,0,1,2.78-1.74,7.11,7.11,0,0,1,3-.65,1.34,1.34,0,0,1,.8.2,2,2,0,0,1,.47.45l.36.49a1,1,0,0,0,.44.35,1.72,1.72,0,0,0,.54.14,3.43,3.43,0,0,0,.56,0h1a2.93,2.93,0,0,1,.61.06,1.09,1.09,0,0,1,.51.29,1.48,1.48,0,0,1,.34.61,3.92,3.92,0,0,1,.12,1.08,13.69,13.69,0,0,1-.22,2.34q-.22,1.29-.48,2.64c-.18.9-.34,1.8-.49,2.7a16.71,16.71,0,0,0-.22,2.56,5.56,5.56,0,0,0,.19,1.61.77.77,0,0,0,.8.59,2.4,2.4,0,0,0,1-.23,6.1,6.1,0,0,0,1-.61,11,11,0,0,0,1-.85c.35-.31.67-.64,1-1,.72-.79,1.44-1.69,2.18-2.68Zm-18.76-1.73a7.35,7.35,0,0,0,.07,1.06,3.17,3.17,0,0,0,.28.93,1.82,1.82,0,0,0,.53.66,1.34,1.34,0,0,0,.83.25,2,2,0,0,0,1.47-.7,6.83,6.83,0,0,0,1.14-1.7,11,11,0,0,0,.78-2,12.34,12.34,0,0,0,.39-1.76l1.34-6.46a3.75,3.75,0,0,0-1.76.45A6.52,6.52,0,0,0,217,27a11.28,11.28,0,0,0-1.4,1.76,14.22,14.22,0,0,0-1.1,2.08,13.85,13.85,0,0,0-.71,2.18A9.19,9.19,0,0,0,213.49,35.07Z"/><path class="cls-1" d="M7.3,11.64c1.45,2,2.78,4,4.07,6l-1.55-1,.53-.08L9.26,17c.64-.72,1.3-1.41,1.91-2.16a12,12,0,0,1,1.92-2.15,9.36,9.36,0,0,1,2.6-1.32,9.2,9.2,0,0,1,3.28-.5.32.32,0,0,1,.32.34v0a9.17,9.17,0,0,1-1.1,3.13,9.17,9.17,0,0,1-1.78,2.32A12.12,12.12,0,0,1,14,18.16c-.85.46-1.65,1-2.47,1.48l-.74.45L10.39,20,9.86,20,8.5,19.79,8.31,19c-.55-2.34-1.07-4.7-1.47-7.11a.26.26,0,0,1,.22-.3A.25.25,0,0,1,7.3,11.64Z"/></g></g></svg>